:FULLY-SPECIFIED
:FORCE-ALL-JOINTS-BE-3DOF
:DEGREES
453
root 10.7883 17.446 27.6311 5.3723 0.844298 1.31836
lfemur -19.1411 3.64103 -27.3795
ltibia 26.5803 -0 0
lfoot -13.0683 4.97131 0.00210901
ltoes 0.129003 -0 0
rfemur -20.5573 -1.87496 18.3896
rtibia 64.8535 -0 0
rfoot -9.7893 -8.37082 -0.00233838
rtoes -19.6471 0 0
lowerback -5.10738 -1.21913 -2.01711
upperback -1.69999 -1.54713 1.62285
thorax 1.21662 -0.771306 2.70601
lowerneck -20.9088 -3.85788 -11.4717
upperneck 24.3803 -4.56291 10.4237
head 11.9991 -1.7963 5.13451
lclavicle 4.47233e-16 -7.68635e-15 0
lhumerus -25.3102 -12.7896 89.7661
lradius 20.8986 -0 0
lwrist -4.20261 0 0
lhand -11.4746 -23.6972 0.00157121
lfingers 7.12502 0 0
lthumb 14.5632 5.77031 0.00122889
rclavicle 4.47233e-16 -7.68635e-15 0
rhumerus -45.5 10.7424 -88.3623
rradius 34.7073 -0 0
rwrist -13.1971 0 0
rhand -33.1157 -26.7718 -0.0245313
rfingers 7.12502 0 0
rthumb -6.32589 -56.6548 -0.0239197
454
root 10.7954 17.4384 27.745 5.21241 1.05191 1.39869
lfemur -18.4874 3.63962 -27.4518
ltibia 26.59 -0 0
lfoot -13.4833 4.85473 0.0019789
ltoes 0.416388 -0 0
rfemur -21.496 -1.73393 18.3587
rtibia 64.5433 -0 0
rfoot -11.0843 -8.43419 -0.00125604
rtoes -19.1313 0 0
lowerback -5.02718 -1.43828 -2.17422
upperback -1.54184 -1.83404 1.68178
thorax 1.35931 -0.918572 2.83628
lowerneck -21.1086 -3.74076 -11.3465
upperneck 24.4104 -4.41712 10.4216
head 12.0272 -1.71491 5.13889
lclavicle -4.3795e-15 -1.03368e-14 0
lhumerus -24.277 -13.6297 89.5965
lradius 21.1549 -0 0
lwrist -3.74794 0 0
lhand -11.7947 -23.8063 0.00188772
lfingers 7.12502 0 0
lthumb 14.2547 5.68294 0.00147738
rclavicle -4.3795e-15 -1.03368e-14 0
rhumerus -45.4078 10.8866 -88.2706
rradius 35.0116 -0 0
rwrist -13.7061 0 0
rhand -32.4868 -28.1202 -0.0272682
rfingers 7.12502 0 0
rthumb -5.71864 -58.0201 -0.0266011
455
root 10.8025 17.4308 27.8589 5.0532 1.26645 1.50512
lfemur -17.8264 3.6453 -27.5528
ltibia 26.5977 -0 0
lfoot -13.8931 4.72426 0.0012875
ltoes 0.755179 -0 0
rfemur -22.3971 -1.60311 18.2804
rtibia 64.1289 -0 0
rfoot -12.3012 -8.48501 0.000122112
rtoes -18.5109 0 0
lowerback -4.95525 -1.65475 -2.35376
upperback -1.39783 -2.11635 1.73032
thorax 1.4929 -1.06353 2.96845
lowerneck -21.25 -3.62226 -11.2427
upperneck 24.4315 -4.27195 10.4327
head 12.0417 -1.63578 5.15156
lclavicle -9.20623e-15 -1.29873e-14 0
lhumerus -23.2977 -14.4462 89.4043
lradius 21.4376 -0 0
lwrist -3.25692 0 0
lhand -12.129 -23.9135 0.00158904
lfingers 7.12502 0 0
lthumb 13.9327 5.59848 0.00124598
rclavicle -9.20623e-15 -1.29873e-14 0
rhumerus -45.354 11.0279 -88.1882
rradius 35.3131 -0 0
rwrist -14.2492 0 0
rhand -31.8733 -29.4003 -0.0163918
rfingers 7.12502 0 0
rthumb -5.12634 -59.3165 -0.0159819
456
root 10.8095 17.4233 27.9728 4.9084 1.48539 1.62654
lfemur -17.1797 3.63812 -27.6683
ltibia 26.6002 -0 0
lfoot -14.2998 4.59286 0.000435802
ltoes 1.13036 -0 0
rfemur -23.2803 -1.48086 18.1686
rtibia 63.6213 -0 0
rfoot -13.4072 -8.52419 0.000867504
rtoes -17.9476 0 0
lowerback -4.8925 -1.86363 -2.53412
upperback -1.27034 -2.38838 1.76748
thorax 1.61486 -1.20329 3.08978
lowerneck -21.3567 -3.50876 -11.1511
upperneck 24.454 -4.13252 10.4387
head 12.0509 -1.56188 5.16327
lclavicle -1.4033e-14 -1.56377e-14 0
lhumerus -22.3665 -15.2001 89.1906
lradius 21.7487 -0 0
lwrist -2.74814 0 0
lhand -12.4368 -24.004 0.00082111
lfingers 7.12502 0 0
lthumb 13.636 5.52871 0.000647626
rclavicle -1.4033e-14 -1.56377e-14 0
rhumerus -45.3385 11.1373 -88.0986
rradius 35.6206 -0 0
rwrist -14.7937 0 0
rhand -31.4299 -30.3158 -0.00161784
rfingers 7.12502 0 0
rthumb -4.69828 -60.2436 -0.00155661
457
root 10.8166 17.4157 28.0867 4.79162 1.70604 1.75197
lfemur -16.5693 3.59777 -27.7847
ltibia 26.5944 0 0
lfoot -14.7058 4.47352 0
ltoes 1.5269 0 0
rfemur -24.1651 -1.36515 18.0369
rtibia 63.0314 0 0
rfoot -14.3694 -8.55259 0
rtoes -17.6029 0 0
lowerback -4.84004 -2.06008 -2.69364
upperback -1.16171 -2.64446 1.79234
thorax 1.72272 -1.33488 3.18753
lowerneck -21.4521 -3.40652 -11.0627
upperneck 24.4881 -4.00395 10.4216
head 12.0632 -1.49618 5.16479
lclavicle -1.88597e-14 -1.82882e-14 0
lhumerus -21.4787 -15.8522 88.9576
lradius 22.0905 0 0
lwrist -2.24018 0 0
lhand -12.6778 -24.0634 0
lfingers 7.12502 0 0
lthumb 13.4038 5.48541 0
rclavicle -1.88597e-14 -1.82882e-14 0
rhumerus -45.3615 11.1858 -87.9854
rradius 35.9427 0 0
rwrist -15.3071 0 0
rhand -31.3108 -30.5705 0
rfingers 7.12502 0 0
rthumb -4.58327 -60.5009 0
458
root 10.8246 17.4113 28.2046 4.70862 1.93337 1.90084
lfemur -16.0204 3.52027 -27.9258
ltibia 26.6186 -0 0
lfoot -15.1323 4.35636 0.000402903
ltoes 2.00924 -0 0
rfemur -25.0565 -1.27713 17.8591
rtibia 62.3466 -0 0
rfoot -15.1613 -8.54373 -0.00241027
rtoes -17.4959 0 0
lowerback -4.79709 -2.24271 -2.84098
upperback -1.08866 -2.88201 1.79735
thorax 1.79863 -1.45641 3.25967
lowerneck -21.5031 -3.31228 -10.9873
upperneck 24.5403 -3.88146 10.3794
head 12.0742 -1.43863 5.15789
lclavicle -1.28858e-14 -1.29873e-14 0
lhumerus -20.6673 -16.3937 88.7134
lradius 22.4762 -0 0
lwrist -1.73044 0 0
lhand -12.8399 -24.0784 -0.000642582
lfingers 7.12502 0 0
lthumb 13.2476 5.48109 -0.000525087
rclavicle -1.28858e-14 -1.29873e-14 0
rhumerus -45.4611 11.1608 -87.8443
rradius 36.296 -0 0
rwrist -15.8111 0 0
rhand -31.7159 -29.7707 -0.0157335
rfingers 7.12502 0 0
rthumb -4.97438 -59.6905 -0.0154661
459
root 10.8325 17.407 28.3226 4.64995 2.1705 2.08601
lfemur -15.5204 3.42155 -28.1076
ltibia 26.6831 -0 0
lfoot -15.5817 4.22902 0.00111569
ltoes 2.60228 -0 0
rfemur -25.94 -1.22437 17.6198
rtibia 61.5557 -0 0
rfoot -15.804 -8.49163 -0.00449968
rtoes -17.5011 0 0
lowerback -4.76264 -2.41518 -2.99508
upperback -1.05248 -3.10499 1.7821
thorax 1.8411 -1.56975 3.31615
lowerneck -21.4843 -3.22061 -10.9336
upperneck 24.6038 -3.75998 10.3261
head 12.0763 -1.38684 5.1503
lclavicle -6.9119e-15 -7.68633e-15 0
lhumerus -19.9443 -16.8544 88.4625
lradius 22.9067 -0 0
lwrist -1.20353 0 0
lhand -12.9532 -24.0579 -0.00109501
lfingers 7.12502 0 0
lthumb 13.1384 5.50884 -0.00090668
rclavicle -6.9119e-15 -7.68633e-15 0
rhumerus -45.6453 11.0831 -87.6876
rradius 36.677 -0 0
rwrist -16.3359 0 0
rhand -32.5621 -28.0744 -0.0240441
rfingers 7.12502 0 0
rthumb -5.79137 -57.9729 -0.0237461
460
root 10.8404 17.4027 28.4405 4.6062 2.41186 2.28666
lfemur -15.0346 3.31062 -28.305
ltibia 26.7424 -0 0
lfoot -16.0281 4.10073 0.0016013
ltoes 3.23171 -0 0
rfemur -26.8056 -1.18347 17.3486
rtibia 60.6715 -0 0
rfoot -16.3357 -8.42788 -0.00535299
rtoes -17.5633 0 0
lowerback -4.73764 -2.58024 -3.14975
upperback -1.03245 -3.31754 1.75618
thorax 1.8722 -1.67756 3.36208
lowerneck -21.431 -3.13431 -10.8917
upperneck 24.6685 -3.64416 10.2679
head 12.0731 -1.34028 5.14173
lclavicle -9.38e-16 -2.3854e-15 0
lhumerus -19.2734 -17.2531 88.2015
lradius 23.3656 -0 0
lwrist -0.658862 0 0
lhand -13.04 -24.0209 -0.00126005
lfingers 7.12502 0 0
lthumb 13.0547 5.55127 -0.00105807
rclavicle -9.38e-16 -2.3854e-15 0
rhumerus -45.8683 10.9743 -87.5235
rradius 37.0638 -0 0
rwrist -16.8622 0 0
rhand -33.5781 -26.0136 -0.00388653
rfingers 7.12502 0 0
rthumb -6.77222 -55.8861 -0.00419831
461
root 10.8484 17.3983 28.5585 4.56778 2.65193 2.48188
lfemur -14.5279 3.19621 -28.493
ltibia 26.7512 -0 0
lfoot -16.4455 3.98075 0.00157899
ltoes 3.8232 -0 0
rfemur -27.6437 -1.13001 17.0741
rtibia 59.707 -0 0
rfoot -16.7948 -8.38406 -0.00471361
rtoes -17.6275 0 0
lowerback -4.72302 -2.74068 -3.2988
upperback -1.00793 -3.52382 1.72903
thorax 1.91401 -1.78259 3.40252
lowerneck -21.3782 -3.05609 -10.8518
upperneck 24.7244 -3.53871 10.2108
head 12.0682 -1.29841 5.13187
lclavicle 5.0359e-15 2.91553e-15 0
lhumerus -18.6176 -17.6079 87.9254
lradius 23.8367 -0 0
lwrist -0.0958341 0 0
lhand -13.123 -23.9862 -0.00111391
lfingers 7.12502 0 0
lthumb 12.9747 5.59102 -0.000950635
rclavicle 5.0359e-15 2.91553e-15 0
rhumerus -46.0847 10.8556 -87.3604
rradius 37.4349 -0 0
rwrist -17.3706 0 0
rhand -34.4922 -24.1205 0.0364671
rfingers 7.12502 0 0
rthumb -7.6547 -53.9682 0.0351783
462
root 10.8564 17.394 28.6764 4.52487 2.8852 2.65071
lfemur -13.9658 3.08687 -28.6465
ltibia 26.664 -0 0
lfoot -16.8079 3.87831 0.00100311
ltoes 4.30246 -0 0
rfemur -28.4445 -1.03865 16.8244
rtibia 58.6751 -0 0
rfoot -17.2195 -8.39176 -0.00274445
rtoes -17.6383 0 0
lowerback -4.71975 -2.8993 -3.43603
upperback -0.958337 -3.72798 1.70992
thorax 1.98856 -1.8876 3.44242
lowerneck -21.3613 -2.98863 -10.8038
upperneck 24.7615 -3.44836 10.1609
head 12.0653 -1.26069 5.12045
lclavicle 1.10098e-14 8.21647e-15 0
lhumerus -17.9396 -17.9369 87.6285
lradius 24.3036 -0 0
lwrist 0.486148 0 0
lhand -13.2244 -23.9724 -0.000667266
lfingers 7.12502 0 0
lthumb 12.8769 5.61072 -0.000580356
rclavicle 1.10098e-14 8.21647e-15 0
rhumerus -46.2486 10.748 -87.2072
rradius 37.7686 -0 0
rwrist -17.8417 0 0
rhand -35.0347 -22.9263 0.0555604
rfingers 7.12502 0 0
rthumb -8.17843 -52.7562 0.0539543
463
root 10.8643 17.3896 28.7944 4.46745 3.1062 2.77206
lfemur -13.3138 2.99073 -28.7403
ltibia 26.4353 0 0
lfoot -17.0893 3.80265 0
ltoes 4.59517 0 0
rfemur -29.1987 -0.883199 16.6267
rtibia 57.5887 0 0
rfoot -17.6483 -8.48257 0
rtoes -17.5408 0 0
lowerback -4.72883 -3.05886 -3.55524
upperback -0.863128 -3.93416 1.70801
thorax 2.11787 -1.99542 3.48666
lowerneck -21.4153 -2.93455 -10.7383
upperneck 24.7698 -3.37785 10.124
head 12.0678 -1.22659 5.10717
lclavicle 1.69837e-14 1.35174e-14 0
lhumerus -17.2014 -18.2573 87.3039
lradius 24.7498 0 0
lwrist 1.08768 0 0
lhand -13.3669 -23.9984 0
lfingers 7.12502 0 0
lthumb 12.7395 5.59299 0
rclavicle 1.69837e-14 1.35174e-14 0
rhumerus -46.3143 10.672 -87.0727
rradius 38.0432 0 0
rwrist -18.2561 0 0
rhand -34.9373 -22.9616 0
rfingers 7.12502 0 0
rthumb -8.0843 -52.787 0
